<mxfile host="Electron" modified="2024-04-07T15:49:36.024Z" agent="Mozilla/5.0 (Windows NT 10.0; Win64; x64) AppleWebKit/537.36 (KHTML, like Gecko) draw.io/24.1.0 Chrome/120.0.6099.109 Electron/28.1.0 Safari/537.36" etag="sejoXo1l1JIjglx6DKIq" version="24.1.0" type="device">
  <diagram name="第 1 页" id="UOWz36C12T5p-3YlEjhV">
    <mxGraphModel dx="1888" dy="1170" grid="0" gridSize="10" guides="1" tooltips="1" connect="1" arrows="1" fold="1" page="0" pageScale="1" pageWidth="827" pageHeight="1169" math="0" shadow="0">
      <root>
        <mxCell id="0" />
        <mxCell id="1" parent="0" />
        <mxCell id="z8lL19KSK0CsGUIQLu8i-17" style="edgeStyle=none;curved=1;rounded=0;orthogonalLoop=1;jettySize=auto;html=1;exitX=0.5;exitY=1;exitDx=0;exitDy=0;entryX=0.5;entryY=0;entryDx=0;entryDy=0;fontSize=12;startSize=8;endSize=8;" edge="1" parent="1" source="z8lL19KSK0CsGUIQLu8i-1" target="z8lL19KSK0CsGUIQLu8i-2">
          <mxGeometry relative="1" as="geometry" />
        </mxCell>
        <mxCell id="z8lL19KSK0CsGUIQLu8i-1" value="&lt;font style=&quot;font-size: 18px;&quot;&gt;:app&lt;/font&gt;" style="rounded=1;whiteSpace=wrap;html=1;fillColor=#fa6800;strokeColor=#C73500;fontColor=#FFFFFF;" vertex="1" parent="1">
          <mxGeometry x="-285" y="-121" width="184" height="50" as="geometry" />
        </mxCell>
        <mxCell id="z8lL19KSK0CsGUIQLu8i-15" style="edgeStyle=none;curved=1;rounded=0;orthogonalLoop=1;jettySize=auto;html=1;exitX=0.5;exitY=1;exitDx=0;exitDy=0;entryX=0.5;entryY=0;entryDx=0;entryDy=0;fontSize=12;startSize=8;endSize=8;" edge="1" parent="1" source="z8lL19KSK0CsGUIQLu8i-2" target="z8lL19KSK0CsGUIQLu8i-4">
          <mxGeometry relative="1" as="geometry" />
        </mxCell>
        <mxCell id="z8lL19KSK0CsGUIQLu8i-16" style="edgeStyle=none;curved=1;rounded=0;orthogonalLoop=1;jettySize=auto;html=1;exitX=0.5;exitY=1;exitDx=0;exitDy=0;fontSize=12;startSize=8;endSize=8;" edge="1" parent="1" source="z8lL19KSK0CsGUIQLu8i-2" target="z8lL19KSK0CsGUIQLu8i-3">
          <mxGeometry relative="1" as="geometry" />
        </mxCell>
        <mxCell id="z8lL19KSK0CsGUIQLu8i-2" value="&lt;font style=&quot;font-size: 18px;&quot;&gt;:feature&lt;/font&gt;" style="rounded=1;whiteSpace=wrap;html=1;fillColor=#008a00;fontColor=#ffffff;strokeColor=#005700;" vertex="1" parent="1">
          <mxGeometry x="-285" y="-26" width="184" height="50" as="geometry" />
        </mxCell>
        <mxCell id="z8lL19KSK0CsGUIQLu8i-12" style="edgeStyle=none;curved=1;rounded=0;orthogonalLoop=1;jettySize=auto;html=1;exitX=0.5;exitY=1;exitDx=0;exitDy=0;entryX=0.5;entryY=0;entryDx=0;entryDy=0;fontSize=12;startSize=8;endSize=8;" edge="1" parent="1" source="z8lL19KSK0CsGUIQLu8i-3" target="z8lL19KSK0CsGUIQLu8i-5">
          <mxGeometry relative="1" as="geometry" />
        </mxCell>
        <mxCell id="z8lL19KSK0CsGUIQLu8i-3" value="&lt;font style=&quot;font-size: 18px;&quot;&gt;:feature-data&lt;/font&gt;" style="rounded=1;whiteSpace=wrap;html=1;fillColor=#0050ef;fontColor=#ffffff;strokeColor=#001DBC;" vertex="1" parent="1">
          <mxGeometry x="-285" y="263" width="184" height="50" as="geometry" />
        </mxCell>
        <mxCell id="z8lL19KSK0CsGUIQLu8i-10" style="edgeStyle=none;curved=1;rounded=0;orthogonalLoop=1;jettySize=auto;html=1;exitX=0.5;exitY=1;exitDx=0;exitDy=0;entryX=0.5;entryY=0;entryDx=0;entryDy=0;fontSize=12;startSize=8;endSize=8;" edge="1" parent="1" source="z8lL19KSK0CsGUIQLu8i-4" target="z8lL19KSK0CsGUIQLu8i-6">
          <mxGeometry relative="1" as="geometry" />
        </mxCell>
        <mxCell id="z8lL19KSK0CsGUIQLu8i-4" value="&lt;font style=&quot;font-size: 18px;&quot;&gt;:core-ui&lt;/font&gt;" style="rounded=1;whiteSpace=wrap;html=1;fillColor=#60a917;fontColor=#ffffff;strokeColor=#2D7600;" vertex="1" parent="1">
          <mxGeometry x="-101" y="75" width="184" height="50" as="geometry" />
        </mxCell>
        <mxCell id="z8lL19KSK0CsGUIQLu8i-13" style="edgeStyle=none;curved=1;rounded=0;orthogonalLoop=1;jettySize=auto;html=1;exitX=0.5;exitY=1;exitDx=0;exitDy=0;fontSize=12;startSize=8;endSize=8;" edge="1" parent="1" source="z8lL19KSK0CsGUIQLu8i-5" target="z8lL19KSK0CsGUIQLu8i-7">
          <mxGeometry relative="1" as="geometry" />
        </mxCell>
        <mxCell id="z8lL19KSK0CsGUIQLu8i-5" value="&lt;span style=&quot;font-size: 18px;&quot;&gt;:core-data&lt;/span&gt;" style="rounded=1;whiteSpace=wrap;html=1;fillColor=#1ba1e2;fontColor=#ffffff;strokeColor=#006EAF;" vertex="1" parent="1">
          <mxGeometry x="-285" y="347" width="184" height="50" as="geometry" />
        </mxCell>
        <mxCell id="z8lL19KSK0CsGUIQLu8i-6" value="&lt;font style=&quot;font-size: 18px;&quot;&gt;:base&lt;/font&gt;&lt;span style=&quot;font-size: 18px; background-color: initial;&quot;&gt;-ui&lt;/span&gt;" style="rounded=1;whiteSpace=wrap;html=1;fillColor=#647687;fontColor=#ffffff;strokeColor=#314354;" vertex="1" parent="1">
          <mxGeometry x="-101" y="163" width="184" height="50" as="geometry" />
        </mxCell>
        <mxCell id="z8lL19KSK0CsGUIQLu8i-14" style="edgeStyle=none;curved=1;rounded=0;orthogonalLoop=1;jettySize=auto;html=1;exitX=0.5;exitY=1;exitDx=0;exitDy=0;fontSize=12;startSize=8;endSize=8;" edge="1" parent="1" source="z8lL19KSK0CsGUIQLu8i-7" target="z8lL19KSK0CsGUIQLu8i-8">
          <mxGeometry relative="1" as="geometry" />
        </mxCell>
        <mxCell id="z8lL19KSK0CsGUIQLu8i-7" value="&lt;span style=&quot;font-size: 18px;&quot;&gt;:base-android&lt;/span&gt;" style="rounded=1;whiteSpace=wrap;html=1;fillColor=#647687;strokeColor=#314354;fontColor=#ffffff;" vertex="1" parent="1">
          <mxGeometry x="-285" y="431" width="184" height="50" as="geometry" />
        </mxCell>
        <mxCell id="z8lL19KSK0CsGUIQLu8i-8" value="&lt;span style=&quot;font-size: 18px;&quot;&gt;:base-jvm&lt;/span&gt;" style="rounded=1;whiteSpace=wrap;html=1;fillColor=#647687;fontColor=#ffffff;strokeColor=#314354;" vertex="1" parent="1">
          <mxGeometry x="-285" y="515" width="184" height="50" as="geometry" />
        </mxCell>
        <mxCell id="z8lL19KSK0CsGUIQLu8i-24" value="&lt;span style=&quot;font-size: 18px;&quot;&gt;应用程序&lt;/span&gt;" style="rounded=1;whiteSpace=wrap;html=1;fillColor=#fa6800;strokeColor=#C73500;fontColor=#FFFFFF;" vertex="1" parent="1">
          <mxGeometry x="-529" y="-121" width="184" height="50" as="geometry" />
        </mxCell>
        <mxCell id="z8lL19KSK0CsGUIQLu8i-26" value="&lt;font style=&quot;font-size: 18px;&quot;&gt;功能模块&lt;/font&gt;&lt;div&gt;&lt;span style=&quot;font-size: 18px;&quot;&gt;&lt;br&gt;&lt;/span&gt;&lt;div style=&quot;&quot;&gt;&lt;font style=&quot;font-size: 18px;&quot;&gt;当功能的数据会和其它模块公用或数据层逻辑比较复杂时，将数据层提取至&lt;/font&gt;&lt;span style=&quot;font-size: 18px; text-align: center; background-color: initial;&quot;&gt;:feature-data下的模块内&lt;/span&gt;&lt;/div&gt;&lt;/div&gt;" style="rounded=1;whiteSpace=wrap;html=1;fillColor=#008a00;fontColor=#ffffff;strokeColor=#005700;align=left;" vertex="1" parent="1">
          <mxGeometry x="-529" y="-26" width="184" height="184" as="geometry" />
        </mxCell>
        <mxCell id="z8lL19KSK0CsGUIQLu8i-29" value="&lt;span style=&quot;font-size: 18px;&quot;&gt;与业务相关的通用UI&lt;/span&gt;" style="rounded=1;whiteSpace=wrap;html=1;fillColor=#60a917;fontColor=#ffffff;strokeColor=#2D7600;" vertex="1" parent="1">
          <mxGeometry x="143" y="75" width="184" height="50" as="geometry" />
        </mxCell>
        <mxCell id="z8lL19KSK0CsGUIQLu8i-30" value="&lt;span style=&quot;font-size: 18px;&quot;&gt;与业务无关的通用UI&lt;/span&gt;" style="rounded=1;whiteSpace=wrap;html=1;fillColor=#647687;fontColor=#ffffff;strokeColor=#314354;" vertex="1" parent="1">
          <mxGeometry x="143" y="163" width="184" height="50" as="geometry" />
        </mxCell>
        <mxCell id="z8lL19KSK0CsGUIQLu8i-33" value="&lt;font style=&quot;font-size: 18px;&quot;&gt;功能数据模块&lt;/font&gt;" style="rounded=1;whiteSpace=wrap;html=1;fillColor=#0050ef;fontColor=#ffffff;strokeColor=#001DBC;" vertex="1" parent="1">
          <mxGeometry x="-529" y="263" width="184" height="50" as="geometry" />
        </mxCell>
        <mxCell id="z8lL19KSK0CsGUIQLu8i-35" value="&lt;span style=&quot;font-size: 18px;&quot;&gt;与业务相关的通用数据或逻辑&lt;/span&gt;" style="rounded=1;whiteSpace=wrap;html=1;fillColor=#1ba1e2;fontColor=#ffffff;strokeColor=#006EAF;" vertex="1" parent="1">
          <mxGeometry x="-53" y="347" width="184" height="50" as="geometry" />
        </mxCell>
        <mxCell id="z8lL19KSK0CsGUIQLu8i-36" value="&lt;span style=&quot;font-size: 18px;&quot;&gt;与业务无关的通用逻辑&lt;/span&gt;&lt;div&gt;&lt;span style=&quot;font-size: 18px;&quot;&gt;Android模块&lt;/span&gt;&lt;/div&gt;" style="rounded=1;whiteSpace=wrap;html=1;fillColor=#647687;strokeColor=#314354;fontColor=#ffffff;" vertex="1" parent="1">
          <mxGeometry x="-53" y="431" width="184" height="50" as="geometry" />
        </mxCell>
        <mxCell id="z8lL19KSK0CsGUIQLu8i-38" value="&lt;span style=&quot;font-size: 18px;&quot;&gt;与业务无关的通用逻辑&lt;/span&gt;&lt;div&gt;&lt;span style=&quot;font-size: 18px;&quot;&gt;Java或Kotlin模块&lt;/span&gt;&lt;/div&gt;" style="rounded=1;whiteSpace=wrap;html=1;fillColor=#647687;fontColor=#ffffff;strokeColor=#314354;" vertex="1" parent="1">
          <mxGeometry x="-53" y="515" width="184" height="50" as="geometry" />
        </mxCell>
      </root>
    </mxGraphModel>
  </diagram>
</mxfile>
